<?xml version="1.0" encoding="UTF-8"?>
  <svg xmlns="http://www.w3.org/2000/svg" viewBox="0 0 151.5 151.5">
      <defs>
        <style>.d{fill:none;stroke:#231f20;stroke-miterlimit:10;stroke-width:8px;}</style>
      </defs>
        <g id="a"/>
          <g id="b">
            <g id="c">
              <path class="d" d="M75.75,4c39.63,0,71.75,32.12,71.75,71.75s-32.12,71.75-71.75,71.75S4,115.38,4,75.75,36.12,4,75.75,4Zm-15.97,39.66c-.24,4.67,1.92,10.71,5.56,16.3,2.93,4.49,5.73,9.3,10.17,9.53,4.06,.21,7.21-3.62,9.98-7.5,3.44-4.83,6.98-11.47,7.25-16.65,.43-8.41-6.68-15.36-15.18-15.79-9.98-.51-17.35,5.7-17.78,14.11Zm49.56,26.06c-4.67-.27-10.73,1.86-16.35,5.51-4.51,2.93-9.35,5.72-9.61,10.21-.24,4.1,3.57,7.31,7.42,10.13,4.8,3.51,11.41,7.13,16.6,7.43,8.41,.49,15.41-6.64,15.91-15.23,.59-10.08-5.57-17.56-13.97-18.05ZM27.29,87.63c.5,8.51,7.5,15.57,15.9,15.08,5.18-.3,11.79-3.89,16.6-7.37,3.86-2.8,7.67-5.98,7.43-10.03-.26-4.44-5.09-7.21-9.6-10.11-5.62-3.61-11.68-5.72-16.34-5.45-8.41,.49-14.56,7.9-13.98,17.88Z"/>
            </g>
          </g>
        </svg>
