<?xml version="1.0" encoding="UTF-8"?><svg xmlns="http://www.w3.org/2000/svg" viewBox="0 0 146 146"><defs><style>.d{fill:none;stroke:#000;stroke-miterlimit:10;stroke-width:6px;}</style></defs><g id="a"/><g id="b"><g id="c"><g><path class="d" d="M3,3H120c12.69,0,23,10.31,23,23v117H26.57c-13.01,0-23.57-10.56-23.57-23.57V3h0Z"/><g><path d="M61.08,73.98l15.48,24.79c.31,.38,.08,.68-.31,.76h-9.43c-.61,0-.92-.15-1.15-.6-3.68-6.2-7.43-12.47-11.19-18.97h-.08c-3.45,6.35-7.05,12.77-10.65,18.97-.23,.45-.46,.6-.92,.6h-8.97c-.54,0-.54-.45-.31-.76l15.02-24.19-14.72-24.04c-.23-.38,0-.68,.38-.68h9.35c.46,0,.69,.08,.92,.53,3.37,6.27,7.2,12.47,10.65,18.75h.08c3.37-6.27,6.97-12.47,10.5-18.67,.15-.38,.38-.6,.92-.6h8.58c.46,0,.54,.3,.31,.76l-14.49,23.36Z"/><path d="M78.02,81.24c0-10.96,8.28-19.73,21.77-19.73,1.07,0,1.99,.08,3.3,.23v-15.5c0-.38,.15-.53,.46-.53h8.35c.38,0,.38,.15,.38,.45v45.66c0,1.51,.15,3.48,.31,4.84,0,.38-.08,.53-.46,.68-4.98,2.12-9.89,2.95-14.49,2.95-11.11,0-19.62-6.35-19.62-19.05Zm25.06-11.57c-1-.38-2.22-.53-3.6-.53-6.82,0-11.96,4.31-11.96,11.64,0,8.24,4.98,11.64,11.11,11.64,1.53,0,3.07-.15,4.45-.6v-22.15Z"/></g></g></g></g></svg>