<?xml version="1.0" encoding="UTF-8"?><svg xmlns="http://www.w3.org/2000/svg" viewBox="0 0 224.41 253.77"><defs><style>.d{fill:#fbc6ac;}.e{fill:#fff3ca;}.f{fill:#afbf84;}</style></defs><g id="a"/><g id="b"><g id="c"><g><path class="f" d="M75.77,8.7c26.21-18.17,65.08-4.66,87.84,11.1,40.15,27.81,77.47,95.44,52.97,137.29-26.91,45.98-114.52,37.12-129.08,5.55-12.37-26.81,29.51-66.6,12.74-95.48-11.3-19.45-39.37-16.98-41.24-32.94-1.48-12.61,14.88-24.23,16.76-25.53Z"/><polygon class="d" points="53.77 108.25 168.4 130.13 193.79 199.88 84.3 253.77 0 185.83 53.77 108.25"/><path class="e" d="M27.56,156.03c5.46,10.68,17.52,16.71,29.32,16.13,13.19-.65,24.61-8.88,33.28-18.27,17.89-19.38,28.56-44.44,36.39-69.3,4.47-14.2,8.07-28.66,11.63-43.12l-8.84-1.2c1.46,31.48,3.48,62.92,6.09,94.33,.74,8.92,1.53,17.84,2.36,26.75,.22,2.34,1.91,4.62,4.5,4.5,2.41-.11,4.53-1.98,4.5-4.5-.15-12.86-6.31-24.37-13.52-34.65-6.75-9.63-13.95-19.67-23.79-26.38-4.64-3.17-10.08-5.3-15.74-5.45-3.08-.08-6.46,.37-9.18,1.9-3.37,1.9-5.05,5.47-5.01,9.26,.16,13.18,12.92,21.28,22.1,28.54,12.61,9.98,25.22,19.95,37.83,29.93,1.47,1.16,3.09,1.7,4.92,.93,1.54-.65,2.9-2.34,2.77-4.11-.18-2.39-.23-4.78-.13-7.17,.05-1.15,.13-2.3,.24-3.44,.06-.57,.13-1.14,.19-1.71,.08-.74-.1,.65,0-.08,.05-.35,.1-.71,.16-1.06,.75-4.69,1.98-9.29,3.55-13.77,.38-1.09,.79-2.18,1.21-3.26,.21-.54,.43-1.08,.65-1.62,.04-.11,.33-.79,.05-.13,.14-.34,.29-.67,.43-1,.96-2.21,2-4.38,3.09-6.53,2.18-4.29,4.58-8.47,7.11-12.57,2.51-4.07,5.13-8.08,7.83-12.02,.63-.91,1.26-1.82,1.91-2.72,.32-.44,.65-.89,.98-1.33,.17-.22,.33-.44,.5-.66-.38,.51,.04-.05,.21-.26,1.48-1.87,2.99-3.71,4.78-5.29,.38-.33,.77-.64,1.15-.96-.74,.61,.34-.25,.55-.41,.86-.63,1.71-1.33,2.62-1.87,.12-.07,.83-.45,.31-.19s.2-.07,.34-.12c.41-.15,.82-.28,1.22-.43,.37-.14,.72-.28,1.1-.39,.23-.06,.46-.11,.69-.16,.28-.06,1-.03,.09-.03,.55,0,1.09-.06,1.64-.04,.3,.01,.61,.03,.91,.07-.23-.03-.72-.17,.07,.06,.52,.15,1.02,.29,1.53,.48-.9-.35,.3,.22,.57,.36,.18,.1,.65,.48,.06,0s-.16-.16-.09-.05c.09,.15,.5,.56,.17,.16-.37-.44,.11,.16,.18,.28,.27,.41,.46,.84,.71,1.26s-.07-.18-.09-.25c.12,.34,.25,.68,.36,1.03,.14,.47,.24,.95,.34,1.44,.05,.22,.08,.85,0-.08,.02,.25,.05,.5,.07,.76,.07,1.11-.02,2.19-.08,3.3-.04,.7,.14-.7,0-.01-.05,.26-.09,.53-.14,.79-.1,.53-.22,1.05-.36,1.57-.31,1.18-.7,2.34-1.13,3.48-.1,.27-.21,.54-.32,.81,.07-.18,.31-.68-.06,.13-.24,.53-.49,1.05-.74,1.57-.55,1.1-1.14,2.17-1.76,3.23-1.23,2.1-2.58,4.12-3.96,6.12-.71,1.03-1.44,2.05-2.18,3.06-.36,.5-.73,.99-1.1,1.48-.18,.24-.37,.49-.55,.73l-.28,.36c.2-.25,.2-.26,.01-.02-1.51,1.93-3.06,3.83-4.64,5.69-3.13,3.7-6.38,7.29-9.62,10.88-6.81,7.56-13.08,15.63-18.71,24.1-2.3,3.47-4.71,6.99-6.57,10.72-1.4,2.82-2.54,5.8-3.52,8.8-2.28,6.97-3.74,14.22-4.54,21.51-.69,6.26-1.01,13.26,1.08,19.3,.46,1.34,1.02,2.67,1.78,3.87,1.26,1.99,4.06,2.96,6.16,1.61s2.96-4.03,1.61-6.16c-.29-.45-.52-.93-.77-1.4-.28-.53,.43,1.14,0,0-.12-.31-.22-.63-.32-.95-.18-.6-.34-1.22-.47-1.83-.08-.37-.15-.73-.21-1.1-.03-.17-.05-.34-.08-.51-.1-.56,.13,1.1,.04,.29-.36-3.3-.36-6.62-.12-9.93,.06-.85,.13-1.69,.22-2.54,.04-.43,.09-.86,.14-1.29,.03-.27,.07-.54,.1-.81,.08-.62,.02-.46-.01,.06,.1-1.83,.57-3.72,.92-5.52,.69-3.54,1.55-7.06,2.6-10.51,.47-1.56,.99-3.1,1.56-4.63,.25-.66,.51-1.31,.77-1.96,.28-.7-.16,.34-.16,.38,.02-.12,.14-.33,.2-.45,.16-.36,.32-.72,.49-1.07,1.76-3.7,4.12-7.16,6.36-10.57,1.42-2.15,2.87-4.28,4.37-6.38,.7-.98,1.42-1.96,2.14-2.93,.36-.48,.72-.97,1.09-1.45,.18-.24,.37-.48,.55-.72,.9-1.18-.51,.65,.4-.52,3.14-4.03,6.44-7.91,9.86-11.7,6.96-7.73,13.83-15.53,19.71-24.13,5.57-8.14,11.03-18.15,8.73-28.35-.58-2.56-1.8-4.88-3.47-6.88-1.44-1.73-3.73-2.79-5.84-3.42-2.71-.81-5.7-.78-8.44-.14-2.04,.48-4.41,1.34-6.1,2.55-1.93,1.38-3.89,2.77-5.66,4.35s-3.39,3.56-4.91,5.5c-3.13,4-5.97,8.21-8.75,12.46-10.89,16.67-20.84,35.21-21.74,55.52-.11,2.46-.06,4.93,.13,7.39l7.68-3.18c-10.53-8.33-21.06-16.66-31.59-24.99-5.03-3.98-10.11-7.91-15.09-11.95-1.95-1.58-3.86-3.24-5.59-5.06-.43-.46-.85-.92-1.26-1.4-.2-.24-.4-.48-.59-.72-.47-.57,.59,.86-.08-.13s-1.37-2.05-1.91-3.17c-.08-.15-.53-1.28-.15-.28-.09-.23-.18-.46-.26-.7-.21-.59-.38-1.19-.52-1.8-.06-.25-.1-.5-.15-.74-.28-1.2,.02,.93-.05-.35-.01-.27-.04-.54-.04-.8,0-.27,0-.54,.02-.8-.08,.47-.09,.54-.03,.21,.07-.23,.34-1.04-.04-.22,.11-.23,.24-.44,.37-.66-.65,1,.61-.36-.38,.36,.19-.14,.4-.25,.59-.38,.9-.59-.56,.12,.05-.05,.28-.08,.56-.19,.85-.26,.23-.06,.46-.11,.69-.16,.23-.05,.47-.09,.7-.12-.54,.07-.64,.08-.3,.04,1.12-.08,2.22-.15,3.35-.08,.3,.02,.75-.01,1.04,.09-.11-.04-1.02-.18-.17-.02,.68,.13,1.36,.26,2.03,.44,1.01,.27,2.01,.61,2.98,1.01-1.06-.43,.6,.3,.86,.44,.65,.33,1.28,.68,1.9,1.05,1.01,.6,1.98,1.25,2.93,1.95,.18,.13,.86,.65,.14,.09,.2,.16,.4,.31,.6,.47,.6,.48,1.19,.98,1.76,1.49,1.98,1.75,3.82,3.63,5.59,5.59s3.48,4.06,5.13,6.17c-.6-.77,.2,.27,.27,.35,.16,.21,.32,.42,.48,.63,.39,.52,.78,1.05,1.17,1.57,.81,1.1,1.62,2.2,2.42,3.31,3.71,5.13,7.28,10.42,10.03,16.14,.33,.69,.64,1.38,.95,2.08,.54,1.21-.17-.48,.11,.26,.17,.45,.36,.9,.53,1.35,.53,1.42,1,2.86,1.39,4.32s.69,2.95,.94,4.45c.22,1.34-.06-.91,.05,.45,.04,.42,.08,.83,.11,1.25,.06,.84,.09,1.68,.1,2.53h9c-2.93-31.37-5.3-62.79-7.08-94.24-.51-8.94-.97-17.89-1.38-26.84-.1-2.25-1.63-4.11-3.9-4.42-2.14-.29-4.4,1.04-4.94,3.22-3.06,12.46-6.16,24.92-9.82,37.23-1.81,6.09-3.76,12.13-5.92,18.1-1.07,2.96-2.19,5.9-3.36,8.82-.26,.65-.52,1.29-.79,1.93-.03,.07-.56,1.34-.19,.46-.16,.38-.33,.77-.49,1.15-.63,1.46-1.27,2.92-1.94,4.37-2.57,5.61-5.41,11.11-8.57,16.41-1.57,2.63-3.21,5.21-4.95,7.74-.85,1.23-1.71,2.45-2.6,3.65-.4,.55-.81,1.09-1.22,1.63-.81,1.07,.54-.68-.29,.38-.34,.43-.67,.85-1.01,1.28-3.85,4.79-8.09,9.29-12.92,13.12,.14-.11,.65-.48-.05,.03-.32,.24-.64,.48-.97,.72-.54,.39-1.09,.77-1.64,1.14-1.32,.88-2.68,1.69-4.08,2.43-.64,.34-1.28,.65-1.93,.96-.3,.14-.59,.27-.89,.4,.95-.41-.25,.09-.37,.14-1.45,.56-2.94,1.03-4.46,1.4-.67,.16-1.34,.3-2.02,.42-.31,.05-1.22,.39-.13,.03-.3,.1-.7,.08-1,.1-1.46,.12-2.92,.13-4.38,.04-.34-.02-.67-.05-1.01-.08-.3-.03-1.31,0-.14,0-.7,0-1.48-.25-2.16-.4-1.37-.31-2.72-.71-4.04-1.22-.2-.08-1.23-.56-.17-.06-.31-.14-.61-.28-.92-.43-.71-.34-1.4-.72-2.07-1.13-.58-.35-1.14-.72-1.69-1.11-.17-.12-1.04-.84-.17-.11-.26-.22-.53-.43-.78-.65-1.12-.97-2.14-2.05-3.07-3.21,.71,.87-.02-.04-.13-.2-.2-.29-.4-.58-.59-.87-.45-.7-.85-1.42-1.23-2.16-1.07-2.1-4.19-2.88-6.16-1.61-2.14,1.38-2.76,3.91-1.61,6.16h0Z"/></g></g></g></svg>