<?xml version="1.0" encoding="UTF-8"?><svg xmlns="http://www.w3.org/2000/svg" viewBox="0 0 121.8 147.25"><defs><style>.d{fill:none;stroke:#231f20;stroke-miterlimit:10;}</style></defs><g id="a"/><g id="b"><g id="c"><g><path class="d" d="M23.45,72.27c-4.03-9.54-5.27-18.74-4.15-29.44C21.03,26.27,30.7,3.5,46.73,.77c9.96-1.69,18.33,5.04,19.75,6.18,12.41,9.98,13.13,27.04,13.17,28.45,.49,17.82-11.87,24.2-12.28,35.17"/><path class="d" d="M86.11,9.43c7.33-5.58,20.43-.51,27.43,7.42,12.22,13.84,7,37.62,4.39,49.48-6.93,31.53-31.88,81.44-69.13,80.4-21.8-.61-47.64-18.67-48.28-39.58-.79-25.63,36.44-50.04,58.16-42.06,12.69,4.66,17.29,19.35,21.95,17.32,9.22-4.02-10.53-60.78,5.49-72.98Z"/></g></g></g></svg>