<?xml version="1.0" encoding="UTF-8"?><svg xmlns="http://www.w3.org/2000/svg" xmlns:xlink="http://www.w3.org/1999/xlink" viewBox="0 0 413.06 415.93"><defs><style>.f{fill:#fff;}.g{fill:#f8dae9;}.h{fill:url(#d);}.i{fill:url(#e);opacity:.55;}</style><linearGradient id="d" x1="-1505.36" y1="-2559.29" x2="-1463" y2="-2319.03" gradientTransform="translate(-455.16 3064.44) rotate(43.56)" gradientUnits="userSpaceOnUse"><stop offset="0" stop-color="#fcdcdf"/><stop offset=".15" stop-color="#f8dbe0"/><stop offset=".29" stop-color="#ecdae3"/><stop offset=".44" stop-color="#d8d9e8"/><stop offset=".58" stop-color="#bcd7ef"/><stop offset=".63" stop-color="#b2d7f2"/><stop offset=".8" stop-color="#c4c9e5"/><stop offset=".96" stop-color="#dabad8"/></linearGradient><linearGradient id="e" x1="274.93" y1="106.04" x2="343.13" y2="106.04" gradientTransform="matrix(1, 0, 0, 1, 0, 0)" gradientUnits="userSpaceOnUse"><stop offset="0" stop-color="#f8dae9"/><stop offset=".56" stop-color="#f9f7fb"/><stop offset=".71" stop-color="#f9f3f8"/><stop offset=".86" stop-color="#f9e7f1"/><stop offset=".93" stop-color="#f9dfec"/></linearGradient></defs><g id="a"/><g id="b"><g id="c"><g><g><path class="g" d="M57.68,64.66c-79.16,83.24-75.85,214.89,7.39,294.05,48.88,46.48,120.11,66.2,185.47,52.98,14.34-2.9,67.85-14.5,108.58-60.36,61.93-69.74,84.02-207.12-7.39-294.05C268.49-21.89,136.84-18.58,57.68,64.66Z"/><path class="h" d="M50.27,88.02c-2.33,17.93-1.68,36.17,2.35,53.8,12.65,55.27,54.7,79.68,74.72,90.15,5.11,2.67,17,7.42,17,7.42,11.31,4.2,16.97,6.3,28.87,8.59,25.13,4.83,64.39,8.96,97.17,33.64,16.57,12.47,34.66,34.66,39.98,52.24,10.7,35.35-1.27,52.82-2.47,57.79-32.12,15.38-47.67,18.21-57.77,20.26-65.35,13.23-136.59-6.49-185.47-52.98C-18.58,279.76-21.89,148.11,57.27,64.87l-7,23.14Z"/></g><path class="i" d="M274.93,81.18c1.94-2.85,6.14-8.2,13.45-11.96,9.99-5.14,19.41-4.05,22.73-3.5,5.28,4.28,11.09,10,16.32,17.51,17.55,25.22,16.23,53.04,15.15,63.62-4.56-10.25-13.67-27.09-30.89-42.6-13.62-12.28-27.3-19.19-36.76-23.06Z"/></g><path class="f" d="M6.75,273.27c11.94,22.44,37.78,34.18,62.58,33.13,28.31-1.19,53.17-18.3,72.34-37.98,19.8-20.33,35.89-44.38,49.07-69.43,13.39-25.45,23.95-52.34,32.95-79.62s16.57-55.47,23.82-83.49c.88-3.42,1.76-6.84,2.64-10.26l-11.79-1.6c1.65,34.22,3.63,68.42,5.95,102.61,2.31,34.18,4.95,68.33,7.92,102.46,1.67,19.21,3.45,38.41,5.33,57.6,.3,3.11,2.54,6.15,6,6,3.22-.14,6.04-2.64,6-6-.29-27.5-14.41-51.88-30.23-73.44-14.95-20.38-30.95-41.76-52.4-55.74-10.07-6.56-21.71-11.06-33.84-11.28-6.29-.11-13.29,.65-18.83,3.83-6.69,3.83-9.49,11.17-8.77,18.63,1.27,13.14,8.68,24.14,18.08,33.04,4.61,4.36,9.63,8.26,14.67,12.09,6.22,4.72,12.46,9.42,18.68,14.13,25.01,18.92,50.03,37.83,75.04,56.75l9.42,7.12c3.55,2.68,9.37-.92,9.03-5.18-.83-10.25-.31-21.35,1.26-30.6,1.72-10.19,4.55-20.17,8.13-29.86,3.59-9.7,7.92-18.93,13-28.43s10.45-18.37,16.19-27.24c5.68-8.77,11.59-17.41,17.69-25.89,3.15-4.37,5.32-7.25,8.68-11.3s6.9-8.12,11.03-11.53c.38-.31,.76-.62,1.15-.93,.87-.69-1.1,.79,.4-.3,.93-.68,1.86-1.36,2.8-2.02,1.94-1.36,3.86-2.88,5.92-4.05,0,0,1.78-.88,.78-.44,.55-.24,1.14-.43,1.71-.63,.95-.33,1.91-.62,2.85-.96,.7-.26,1.39-.53,2.1-.74,.51-.14,1.03-.26,1.55-.37,.24-.05,2.43-.35,1.14-.22,1.21-.12,2.43-.18,3.65-.16,.67,.01,1.34,.07,2.02,.1,.08,0,1.24,.12,.42,.01,1.24,.17,2.47,.49,3.66,.87,.55,.18,1.1,.37,1.64,.58-1.16-.44,.74,.36,.95,.47,.63,.33,1.24,.69,1.84,1.07,1.22,.77-.21-.19-.2-.19,.05-.03,.83,.85,.72,.73,.05,.06,1.22,1.51,.5,.55,.34,.45,.65,.92,.95,1.39,.6,.95,1.12,1.94,1.59,2.95-.53-1.14,.19,.53,.23,.64,.19,.53,.36,1.07,.51,1.61,.31,1.1,.54,2.21,.75,3.33,.34,1.81-.05-1.16,.08,.69,.03,.39,.07,.77,.09,1.16,.09,1.38,.09,2.76,.03,4.13-.05,1.2-.15,2.41-.31,3.6,.17-1.21-.15,.78-.16,.82-.07,.4-.15,.8-.23,1.21-.55,2.7-1.34,5.35-2.26,7.94s-1.43,3.78-2.46,5.96c-1.13,2.4-2.37,4.74-3.69,7.04-2.65,4.62-5.61,9.04-8.68,13.38-12.35,17.47-27.09,33.46-41.94,49.23s-29.57,33.26-42.45,51.48c-5.61,7.94-11.37,16.03-16.08,24.56-3.12,5.66-5.56,11.73-7.71,17.81-5.3,14.93-8.74,30.54-10.66,46.26-.9,7.34-1.4,14.77-1.13,22.16,.24,6.62,.97,13.48,3.19,19.76,.95,2.69,2.11,5.36,3.7,7.74,1.74,2.61,5.37,3.98,8.21,2.15,2.6-1.68,4.02-5.42,2.15-8.21-.69-1.03-1.3-2.11-1.83-3.23-.1-.2-.41-.67-.4-.89-.03,.91,.42,1.08,.1,.2-.27-.76-.55-1.51-.79-2.27-.4-1.27-.73-2.57-1.02-3.87-.16-.75-.31-1.5-.44-2.25-.07-.39-.13-.77-.19-1.16-.04-.26-.08-.52-.12-.79-.09-.66-.08-.53,.05,.4-.5-.31-.39-3.84-.44-4.56-.13-1.9-.2-3.8-.22-5.7-.04-3.74,.1-7.48,.37-11.2,.14-1.95,.32-3.89,.53-5.83,.11-.99,.22-1.97,.34-2.95,.04-.33,.08-.66,.13-.99,.09-.7,.09-.66-.01,.11,.05-.33,.09-.66,.14-.99,.58-4.08,1.29-8.14,2.11-12.17,1.57-7.75,3.53-15.42,5.94-22.95,1.07-3.37,2.24-6.71,3.52-10.01,.3-.77,.6-1.53,.92-2.3,.13-.31,.69-1.61,.01-.04,.16-.36,.31-.72,.47-1.08,.6-1.37,1.22-2.72,1.88-4.06,3.94-7.99,9.23-15.4,14.27-22.73,12.56-18.28,26.26-35.13,41.61-51.41s30.81-32.93,44.08-51.22c12.18-16.8,25.46-38.07,20.57-59.8-1.14-5.06-3.54-9.72-6.91-13.65-2.79-3.25-7.19-5.18-11.21-6.35-5.38-1.57-11.22-1.57-16.68-.42-1.86,.39-3.6,1.09-5.39,1.69-2.58,.86-5.21,1.78-7.49,3.29-4.17,2.76-8.31,5.7-12.14,8.92-4.27,3.59-7.88,7.85-11.39,12.16-6.76,8.27-12.87,17.04-18.9,25.85-24.23,35.41-47.02,75.15-49.03,119.06-.24,5.3-.14,10.6,.29,15.89l9.03-5.18c-23.8-18-47.6-35.99-71.4-53.99l-17.92-13.55-8.81-6.66c-1.42-1.07-2.84-2.14-4.25-3.22-.56-.42-1.11-.84-1.67-1.27-.3-.23-.61-.47-.91-.7,.5,.39,.12,.1-.16-.12-4.53-3.54-8.96-7.23-12.96-11.37-.94-.97-1.86-1.97-2.74-2.99-.44-.51-.87-1.03-1.29-1.55-.75-.91-.28-.34-.13-.14-.29-.38-.57-.76-.85-1.15-1.6-2.22-3.04-4.56-4.22-7.03-.16-.34-.32-.68-.47-1.02,.05,.1,.32,.78,.06,.14s-.48-1.23-.69-1.85c-.46-1.35-.84-2.73-1.14-4.12-.14-.66-.26-1.33-.37-1.99,.17,1.07-.09-1.14-.1-1.4-.03-.62-.04-1.24-.01-1.85,.02-.4,.03-.82,.09-1.23-.11,.85,.07-.17,.15-.5,.08-.3,.77-1.87,.34-1.09,.14-.26,.3-.51,.45-.77,.48-.81-.54,.55,.09-.13,.21-.23,1.48-1.35,.65-.72,.6-.45,1.26-.79,1.91-1.15,.17-.09,1.04-.43,.12-.08,.26-.1,.53-.2,.8-.29,.63-.21,1.27-.39,1.91-.55s1.28-.29,1.93-.4c.37-.07,.74-.12,1.12-.18,1.03-.15-1.41,.13,.36-.04,2.66-.25,5.31-.34,7.98-.16,.63,.04,1.26,.09,1.89,.16,.36,.04,.72,.08,1.07,.12-.1-.01-.95-.16-.26-.02,1.33,.26,2.65,.47,3.97,.78,2.65,.63,5.22,1.49,7.75,2.48,.06,.02,.89,.36,.3,.12-.66-.27,.4,.18,.55,.24,.59,.26,1.17,.53,1.76,.81,1.26,.61,2.5,1.25,3.71,1.93,2.41,1.34,4.74,2.81,7,4.37,1.11,.77,2.21,1.57,3.29,2.39,.95,.71,.38,.29,.18,.13,.31,.24,.62,.48,.92,.73,.62,.49,1.23,.99,1.83,1.5,4.48,3.73,8.69,7.79,12.7,12.02,4.13,4.36,8.06,8.9,11.86,13.55,1.84,2.25,3.64,4.52,5.43,6.81,.24,.31,.49,.62,.73,.94-.17-.22-.6-.78,.17,.22,.45,.59,.9,1.17,1.35,1.76,.97,1.26,1.93,2.53,2.9,3.79,7.56,9.98,14.88,20.22,20.89,31.22,5.69,10.42,10.29,21.87,11.75,33.6,.07,.57,.29,2.78,.37,3.93,.11,1.6,.17,3.2,.18,4.8h12c-3.34-34.09-6.35-68.21-9.03-102.36-2.68-34.15-5.03-68.33-7.06-102.53-1.14-19.25-2.17-38.51-3.1-57.78-.15-3-2.17-5.49-5.2-5.89s-5.83,1.39-6.58,4.3c-7.02,27.29-14.12,54.57-22.52,81.47-8.32,26.63-17.69,52.33-29.58,76.93-5.97,12.35-12.55,24.41-19.88,36.01s-14.96,22.14-23.65,32.34c-4.44,5.21-9.09,10.24-14.03,14.99-2.5,2.4-5.07,4.74-7.71,6.98-1.2,1.01-2.41,2.01-3.64,2.98-.33,.26-.65,.52-.98,.77,.62-.48-.2,.15-.27,.2-.83,.62-1.66,1.24-2.51,1.85-5.41,3.9-11.14,7.39-17.17,10.26-.64,.31-1.29,.61-1.94,.9-.37,.17-.74,.33-1.12,.49,.8-.35-.14,.06-.25,.11-1.69,.69-3.4,1.33-5.13,1.92-3.05,1.04-6.17,1.91-9.32,2.57-1.36,.29-2.73,.52-4.11,.73-.26,.04-1.18,.12,.04,0-.35,.03-.69,.08-1.04,.12-.78,.08-1.56,.15-2.35,.21-2.88,.21-5.77,.24-8.66,.09-1.31-.07-2.62-.17-3.93-.32-.35-.04-.7-.08-1.04-.12-.94-.1,.96,.16,.03,0-.78-.13-1.56-.24-2.33-.38-2.84-.52-5.65-1.21-8.4-2.08-1.25-.39-2.48-.83-3.7-1.29-.28-.11-2.14-.88-.98-.38-.8-.35-1.59-.7-2.37-1.08-2.5-1.2-4.92-2.57-7.22-4.1-.58-.38-1.15-.78-1.71-1.18-.2-.15-1.84-1.4-.86-.62-1.15-.91-2.27-1.87-3.35-2.87-.95-.89-1.88-1.8-2.76-2.76-.47-.51-.94-1.03-1.39-1.56-.23-.26-.45-.53-.68-.8-.07-.09-1.14-1.45-.37-.43-1.73-2.26-3.24-4.68-4.57-7.19-1.48-2.77-5.56-3.86-8.21-2.15-2.82,1.82-3.73,5.24-2.15,8.21h0Z"/></g></g></svg>