<?xml version="1.0" encoding="UTF-8"?><svg xmlns="http://www.w3.org/2000/svg" xmlns:xlink="http://www.w3.org/1999/xlink" viewBox="0 0 527.23 524.95"><defs><style>.f{fill:#fff;}.g{fill:#f8dae9;}.h{fill:url(#d);}.i{fill:url(#e);opacity:.55;}</style><linearGradient id="d" x1="246.34" y1="221.88" x2="299.81" y2="525.11" gradientTransform="translate(255.01 -112.85) rotate(43.56)" gradientUnits="userSpaceOnUse"><stop offset="0" stop-color="#fcdcdf"/><stop offset=".15" stop-color="#f8dbe0"/><stop offset=".29" stop-color="#ecdae3"/><stop offset=".44" stop-color="#d8d9e8"/><stop offset=".58" stop-color="#bcd7ef"/><stop offset=".63" stop-color="#b2d7f2"/><stop offset=".8" stop-color="#c4c9e5"/><stop offset=".96" stop-color="#dabad8"/></linearGradient><linearGradient id="e" x1="352.9" y1="133.83" x2="438.97" y2="133.83" gradientTransform="matrix(1, 0, 0, 1, 0, 0)" gradientUnits="userSpaceOnUse"><stop offset="0" stop-color="#f8dae9"/><stop offset=".56" stop-color="#f9f7fb"/><stop offset=".71" stop-color="#f9f3f8"/><stop offset=".86" stop-color="#f9e7f1"/><stop offset=".93" stop-color="#f9dfec"/></linearGradient></defs><g id="a"/><g id="b"><g id="c"><g><g><path class="g" d="M78.71,81.61C-21.2,186.66-17.02,352.81,88.03,452.72c61.69,58.67,151.59,83.56,234.08,66.86,18.09-3.66,85.63-18.3,137.04-76.19,78.17-88.02,106.05-261.4-9.32-371.11C344.77-27.62,178.62-23.45,78.71,81.61Z"/><path class="h" d="M69.36,111.09c-2.94,22.63-2.13,45.65,2.97,67.9,15.97,69.75,69.04,100.57,94.3,113.78,6.45,3.37,21.46,9.36,21.46,9.36,14.28,5.3,21.42,7.95,36.43,10.84,31.71,6.1,81.26,11.3,122.64,42.46,20.91,15.74,43.75,43.74,50.46,65.93,13.5,44.61-1.61,66.66-3.12,72.93-40.54,19.41-60.16,22.99-72.91,25.57-82.48,16.69-172.38-8.19-234.08-66.86C-17.54,353.09-21.71,186.93,78.19,81.88l-8.84,29.21Z"/></g><path class="i" d="M352.9,102.46c2.44-3.6,7.75-10.35,16.97-15.1,12.6-6.49,24.5-5.11,28.69-4.42,6.66,5.4,14,12.62,20.59,22.1,22.15,31.83,20.48,66.94,19.12,80.29-5.76-12.93-17.26-34.19-38.98-53.77-17.19-15.49-34.46-24.22-46.39-29.1Z"/></g><path class="f" d="M.79,333.87c14.94,27.36,46.83,41.14,77.14,40,34.78-1.31,65.61-21.68,89.6-45.48,24.83-24.63,45.12-54.02,61.77-84.67,17-31.29,30.39-64.47,41.81-98.16,11.44-33.76,20.9-68.15,30.05-102.59,1.12-4.22,2.23-8.43,3.35-12.65l-11.79-1.6c2.08,41.98,4.58,83.94,7.49,125.86,2.91,41.93,6.23,83.82,9.97,125.68,2.11,23.6,4.35,47.19,6.72,70.77,.32,3.22,2.53,6,6,6,3.23,0,6.03-2.75,6-6-.36-33.77-18.3-63.48-38.02-89.65-18.77-24.9-38.85-51.05-65.58-67.89-12.55-7.91-26.91-13.29-41.87-13.47-7.54-.09-15.86,.78-22.56,4.49-8.04,4.46-11.24,13.2-10.27,22.06,1.74,15.86,11.04,28.92,22.54,39.47,12.77,11.72,27.5,21.45,41.43,31.71,31.5,23.21,63.01,46.42,94.51,69.63l11.86,8.74c3.56,2.63,9.39-.88,9.03-5.18-4.35-52.26,20.67-100.81,48.74-143.08,7.18-10.81,14.64-21.44,22.35-31.88,7.27-9.83,14.98-20.04,24.48-27.83,7.76-6.37,17.15-12.67,27.56-13.98,4.32-.54,11.11,.26,15.01,1.98,1.05,.46,2.07,1,3.04,1.59,.38,.23,.73,.5,1.11,.73-.15-.09-.91-.93-.42-.3,1.73,2.22,3.12,3.65,4.46,6.35,2.05,4.17,2.77,9.08,2.69,14.04-.09,5.76-1.33,11.28-3.29,16.94-4.21,12.19-11.38,23.15-18.88,33.55-15.61,21.62-33.89,41.02-52.39,60.16-19.07,19.73-37.01,40.33-53.22,62.49-7.35,10.05-14.8,20.31-21.05,31.1-3.95,6.82-7,14.2-9.72,21.59-6.7,18.21-11.08,37.31-13.54,56.54-1.17,9.15-1.82,18.41-1.48,27.64,.3,7.97,1.2,16.23,3.92,23.78,1.17,3.25,2.59,6.45,4.55,9.31,1.83,2.67,5.27,3.87,8.21,2.15,2.65-1.55,3.99-5.52,2.15-8.21-.88-1.29-1.66-2.63-2.34-4.03-.18-.37-.34-.74-.51-1.11-.62-1.28,.43,1.26-.04-.1-.28-.81-.6-1.61-.87-2.42-1.17-3.57-1.93-7.28-2.44-11,.21,1.51-.01-.19-.04-.42-.06-.51-.11-1.03-.16-1.54-.1-1.05-.19-2.1-.26-3.15-.14-2.19-.22-4.38-.25-6.57-.05-4.66,.14-9.32,.49-13.97,.76-9.92,2.07-18.36,4.21-28.54,2-9.54,4.5-18.99,7.56-28.24,1.38-4.18,2.87-8.31,4.52-12.39,.19-.48,.39-.95,.59-1.43,.65-1.57-.49,1.11,.18-.43,.39-.9,.78-1.8,1.19-2.69,.77-1.68,1.56-3.34,2.41-4.98,5.16-10,12-19.29,18.49-28.45,15.96-22.51,33.78-43.53,52.96-63.36,19.19-19.84,38.17-39.85,54.62-62.08,14.83-20.03,31.61-46.11,25.05-72.29-1.49-5.93-4.44-11.52-8.62-16-3.46-3.71-8.9-5.88-13.7-7.12-6.53-1.69-13.53-1.63-20.1-.18-2.32,.52-4.56,1.42-6.82,2.16-3.16,1.04-6.23,2.25-9,4.11-5.09,3.42-10.2,6.83-14.91,10.77-5.12,4.28-9.49,9.34-13.77,14.44-8.42,10.05-16.05,20.75-23.58,31.47-30.19,42.98-58.96,91.48-61.51,145.3-.31,6.53-.18,13.07,.36,19.59l9.03-5.18c-29.97-22.08-59.95-44.17-89.92-66.25-14.48-10.67-29.08-21.19-43.43-32.03-10.5-7.93-21.4-17.21-27.4-29.18-2.57-5.12-5.05-12.51-3.42-18.48,1.45-5.34,7.81-6.8,12.95-7.41,13.3-1.57,25.79,1.65,37.36,7.87,25.35,13.62,44.25,37.39,61.76,59.82,18.34,23.48,37.15,49.75,41.29,79.96,.48,3.54,.69,7.32,.73,10.97h12c-4.2-41.81-8-83.67-11.37-125.56-3.38-41.89-6.34-83.82-8.89-125.77-1.44-23.66-2.74-47.32-3.92-71-.33-6.57-10-8.37-11.79-1.6-8.88,33.66-17.88,67.32-28.53,100.47-10.4,32.38-22.37,64.33-37.53,94.8-15.05,30.23-33.2,59.06-55.55,84.45-21.46,24.37-48.1,46.81-80.62,53.51-6.51,1.34-13.4,1.82-20.71,1.46-6.85-.34-13.13-1.43-20.16-3.6-12.97-4-24.73-11.28-33.45-22.28,.35,.44-.91-1.22-1.03-1.39-.45-.62-.88-1.26-1.3-1.89-1.04-1.57-1.99-3.18-2.89-4.83-3.7-6.78-14.07-.73-10.36,6.06H.79Z"/></g></g></svg>