<?xml version="1.0" encoding="UTF-8"?><svg xmlns="http://www.w3.org/2000/svg" viewBox="0 0 129.27 241.48"><defs><style>.d{fill:none;stroke:#231f20;stroke-miterlimit:10;}</style></defs><g id="a"/><g id="b"><g id="c"><path class="d" d="M45.7,211.53C5.73,180.46-1.59,157.87,.95,145.78c5.63-26.74,39.5-31.62,72.38-78.25,17.37-24.63,11.89-60.59,4.81-66.3-5.94-4.78-14.11,15.23-29.62,21.26s5.43,57.67-7.76,63.56c-8.89,3.97-24.54-16.45-30.44-19.73-5.82-3.24,13.76-11.54,24.75-31.78C45.35,15.63,45.69,1.16,29.39,13.18,1.77,33.54,62.89,47.93,89.8,139.31c7.57,25.71,9.81,55.26-10.26,79.45-20.35,24.53-64.44,28.5-74.45,13.15-8.44-12.93,45.43-117.87,79.19-131.82,13.63-5.63,27.51-10.61,27.92-29.57,.62-28.38-5.85-62.58,16.9-54.36"/></g></g></svg>