<?xml version="1.0" encoding="UTF-8"?><svg xmlns="http://www.w3.org/2000/svg" viewBox="0 0 166.06 200.84"><defs><style>.d{fill:none;stroke:#231f20;stroke-miterlimit:10;}</style></defs><g id="a"/><g id="b"><g id="c"><path class="d" d="M138.67,19.31C104.03-2.97,47.85-1.77,37.14,4.27,8.92,20.19,.47,44.43,12.62,75.89c6.15,15.92-5.99,32.43-11.04,38.6-4.64,5.67,5.68,19.96,31.27,10.97,11.66-4.09-13.5-18.72-6.75-11.7,2.62,2.73-6.32,23.18-5.72,26.77,.83,4.98,9.4,4.12,10.43,8.48,0,0-16.51,5.31-6.75,10.82,8.54,1.16,6.45,4.41,6.7,5.9,.65,3.84-7.13,11.43-12.64,20.57-5.53,9.19,10.96,12.42,15.64,13.91,16.69,5.34,64.34-155.44,97.82-150.45,24.91,3.71,58.4,77.79,7.08,118.19-30.18,23.76-84.84,33.71-92.02,32.09"/></g></g></svg>