<?xml version="1.0" encoding="UTF-8"?><svg xmlns="http://www.w3.org/2000/svg" viewBox="0 0 180.53 110.42"><defs><style>.d{fill:none;stroke:#231f20;stroke-miterlimit:10;}</style></defs><g id="a"/><g id="b"><g id="c"><path class="d" d="M.23,103.28c39.86-20.94,49.59-39.69,50.98-53.07,1.08-10.44-.59-18.55,2.68-23.45,12.07-18.06,32.83,9.08,48.29,3.94,16.18-5.38,12.07-25.7,20.12-29.86,5.6-2.89,8.17,13.68,24.15,24.69,16.7,11.5,32.68,8.23,33.54,12.34,2.55,12.22-139.69,36.42-138.18,56.78,.75,10.09,36.77,19.17,67.08,13.58,36.02-6.64,68.08-34.36,63.05-46.9-6.38-15.92-81.85-13.7-105.98,11.41"/></g></g></svg>