<?xml version="1.0" encoding="UTF-8"?><svg xmlns="http://www.w3.org/2000/svg" viewBox="0 0 511.74 495.63"><defs><style>.d{fill:#231f20;}</style></defs><g id="a"/><g id="b"><g id="c"><path class="d" d="M.82,322.36c15.63,27.85,48.49,41.46,79.45,40.58,35.81-1.02,67.9-21.16,93.11-45.23s47.34-54.72,64.88-85.97c17.79-31.7,31.83-65.42,43.8-99.7,12.03-34.42,21.97-69.53,31.56-104.69,1.19-4.37,2.38-8.74,3.56-13.11l-11.79-1.6c2.17,42.62,4.77,85.21,7.81,127.77s6.5,85.09,10.4,127.59c2.2,23.95,4.54,47.89,7.01,71.82,.33,3.22,2.52,6,6,6,3.23,0,6.04-2.75,6-6-.39-35.05-19.81-65.4-40.58-92.18-19.5-25.14-40.5-51.45-68.11-68.1-13.1-7.9-28.01-13.19-43.43-13.23-7.82-.02-16.61,.86-23.47,4.93-8.65,5.13-10.98,14.49-9.66,23.93,2.18,15.6,12.33,28.45,23.84,38.59,13.5,11.89,28.86,21.8,43.46,32.27,32.66,23.41,65.32,46.83,97.98,70.24l12.05,8.64c3.58,2.56,9.4-.83,9.03-5.18-4.56-53.37,21.84-102.77,51.01-145.47,7.5-10.98,15.29-21.78,23.34-32.36,7.59-9.98,15.72-20.52,25.67-28.26,4.42-3.44,9.32-6.95,14.25-9.61,2.26-1.22,4.81-1.77,7.23-2.6,2.02-.69,4.66-1.47,6.29-1.7,5.56-.79,12.06-.06,16.73,1.9,.93,.39,1.84,.86,2.72,1.36,.41,.24,.83,.57,1.26,.77,1.18,.54-.69-.84-.03-.05,1.73,2.08,3.2,3.62,4.5,6.1,5.02,9.56,3.22,21.68-.42,31.92-4.41,12.4-11.9,23.52-19.69,34.02-16.3,21.98-35.36,41.63-54.61,61s-38.36,40.65-55.24,63.06c-7.72,10.25-15.5,20.72-22.13,31.73-4.13,6.86-7.29,14.32-10.13,21.78-7.02,18.44-11.64,37.83-14.22,57.37-1.23,9.32-1.94,18.74-1.61,28.14,.29,8.12,1.22,16.54,4.01,24.22,1.23,3.38,2.72,6.69,4.8,9.64,1.86,2.65,5.25,3.89,8.21,2.15,2.62-1.53,4.03-5.54,2.15-8.21-.94-1.34-1.77-2.74-2.49-4.2-.18-.36-1.06-2.44-.45-.92-.39-.97-.76-1.95-1.08-2.94-1.18-3.57-1.94-7.27-2.47-10.98,.21,1.45-.03-.3-.05-.5-.06-.53-.12-1.07-.17-1.6-.11-1.09-.2-2.19-.27-3.28-.15-2.28-.23-4.56-.24-6.84-.04-4.75,.17-9.5,.56-14.24,1.54-18.97,6.06-39.19,12.53-58.04,1.42-4.13,2.95-8.23,4.64-12.25-.52,1.22,.17-.39,.23-.53,.21-.48,.42-.96,.63-1.43,.35-.77,.7-1.55,1.06-2.32,.88-1.88,1.81-3.73,2.79-5.55,5.57-10.31,12.84-19.89,19.75-29.33,16.68-22.76,35.29-43.92,55.17-63.92,19.98-20.09,39.67-40.39,56.8-63.02,8.44-11.15,16.22-22.73,21.53-35.73,4.81-11.78,7.37-25.25,3.8-37.74-1.66-5.82-4.76-11.65-9.2-15.84-3.8-3.59-9.45-5.73-14.46-6.87-6.56-1.49-13.47-1.41-20.03,.01-5.53,1.2-11.75,3.29-16.47,6.38-5.21,3.41-10.42,6.81-15.27,10.73-5.46,4.42-10.14,9.67-14.71,14.98-8.76,10.18-16.7,21.05-24.55,31.94-31.33,43.41-61.51,92.71-64.04,147.68-.3,6.5-.16,13.01,.4,19.49l9.03-5.18c-31.06-22.26-62.11-44.52-93.17-66.79-15.03-10.78-30.16-21.44-45.09-32.35-11.13-8.13-22.56-17.28-29.13-29.5-2.8-5.21-5.34-12.24-4.29-18.44s8.1-8.03,13.69-8.72c13.53-1.67,26.67,1.43,38.63,7.54,26.61,13.59,46.51,37.77,64.89,60.64,19.22,23.91,39.23,50.64,43.58,81.88,.51,3.64,.71,7.33,.75,11h12c-4.38-42.45-8.34-84.93-11.86-127.46-3.52-42.53-6.61-85.09-9.27-127.67-1.5-24.01-2.86-48.02-4.08-72.05-.34-6.59-9.95-8.35-11.79-1.6-9.32,34.36-18.75,68.7-29.93,102.51-10.94,33.08-23.56,65.67-39.5,96.69-15.9,30.92-35.08,60.27-58.59,85.97s-50.51,47-84.15,53.35c-27,5.09-58.64-2.89-76.72-24.96-1.81-2.21-3.88-5.36-5.54-8.32-3.78-6.73-14.15-.69-10.36,6.06H.82Z"/></g></g></svg>