<?xml version="1.0" encoding="UTF-8"?><svg xmlns="http://www.w3.org/2000/svg" viewBox="0 0 203.69 146.22"><defs><style>.d{fill:none;stroke:#231f20;stroke-miterlimit:10;}</style></defs><g id="a"/><g id="b"><g id="c"><path class="d" d="M111.02,25.41c-2.24-4.2-7.73-12.89-18.99-18.73C78.44-.36,56.85-3.06,42.17,7.72c-8.59,6.31-18.65,20.05-11.87,32.26,5.56,10.02,19.73,14.08,30.86,12.49,10.12-1.45,21.24-8.08,20.18-12.49-2-8.32-47.84-10.6-72.41,5.2-2.5,1.61-9.4,6.05-8.31,9.37,1.46,4.43,16.35,4.2,18.99,4.16,37.43-.58,57.54-38.18,72.41-34.34,23.33,6.02,25.33,111.86-8.31,120.71-17.02,4.48-45.54-15.25-47.48-35.38C31.62,61.9,151.38,36.69,199.24,31.49c11.76-1.28-.23,23.15-70.41,103.19"/></g></g></svg>