<?xml version="1.0" encoding="UTF-8"?><svg xmlns="http://www.w3.org/2000/svg" xmlns:xlink="http://www.w3.org/1999/xlink" viewBox="0 0 365.5 411"><defs><style>.e{fill:none;stroke:#4f0244;stroke-miterlimit:10;stroke-width:11px;}.f{fill:url(#d);}</style><linearGradient id="d" x1="57.47" y1="277.09" x2="325.01" y2="277.09" gradientTransform="matrix(1, 0, 0, 1, 0, 0)" gradientUnits="userSpaceOnUse"><stop offset="0" stop-color="#d37fff"/><stop offset="0" stop-color="#4e074b"/></linearGradient></defs><g id="a"/><g id="b"><g id="c"><g><path class="f" d="M54.93,310.33c7.79,15.7,25.51,24.08,42.53,24,19.55-.09,37.2-11.2,51-24.19s25.66-29.09,35.33-45.7,17.72-34.86,24.59-53.14,12.69-36.95,18.34-55.65c.69-2.3,1.38-4.6,2.07-6.89l-8.84-1.2c.31,23.2,.84,46.4,1.61,69.6,.76,23.02,1.74,46.02,2.95,69.02,.69,13.07,1.44,26.13,2.27,39.18,.15,2.34,1.96,4.61,4.5,4.5s4.44-1.98,4.5-4.5c.48-18.98-9.06-36.1-19.59-51.21-9.77-14.04-20.22-28.61-34.49-38.43-6.75-4.65-14.53-7.82-22.76-8.34-4.36-.28-8.99,.14-12.99,1.99-5.08,2.35-7.38,7.65-7.06,13.05,.55,9.01,5.52,16.7,11.73,22.95,6.6,6.63,14.35,12.18,21.64,18.01,16.76,13.41,33.51,26.82,50.27,40.23l6.13,4.91c1.46,1.17,3.1,1.7,4.92,.93,1.58-.67,2.85-2.33,2.77-4.11-.17-3.56-.11-7.13,.18-10.69,.07-.81,.14-1.61,.23-2.42,.04-.37,.09-.73,.13-1.1,.17-1.44-.14,.88,.07-.55,.26-1.75,.55-3.49,.91-5.22,1.39-6.83,3.56-13.44,6.17-19.89,.55-1.36-.34,.77,.24-.58,.18-.41,.36-.82,.54-1.23,.3-.69,.61-1.37,.92-2.05,.82-1.78,1.67-3.54,2.55-5.28,1.57-3.1,3.25-6.16,5-9.16,3.6-6.17,7.53-12.14,11.64-17.97,2-2.83,4.04-5.63,6.11-8.41,1.07-1.43,2.15-2.86,3.23-4.28,1.25-1.64,1.92-2.51,3.01-3.9,4.33-5.51,8.87-11.26,14.36-15.66-.6,.48,.11-.08,.26-.19,.28-.2,.55-.41,.83-.6,.66-.47,1.34-.92,2.02-1.36,1.39-.91,2.8-1.82,4.22-2.68,.36-.21,.71-.42,1.09-.59-.85,.39,.41-.12,.49-.15,.64-.21,1.29-.39,1.94-.58,.57-.16,1.12-.36,1.68-.53,.33-.1,.65-.18,.99-.25,.2-.04,1.81-.23,.75-.14,.71-.06,1.42-.11,2.13-.1,.46,0,.93,.02,1.39,.05-.02,0,1.56,.18,.75,.06,.72,.11,1.44,.29,2.14,.5,.4,.12,.79,.27,1.18,.4,.49,.2,.5,.19,0,0,.22,.1,.44,.2,.66,.31,.56,.28,1.1,.6,1.63,.94,1.02,.65-.52-.63,.1,.09,.2,.24,.42,.47,.62,.71-.62-.76,.15,.25,.22,.35,.43,.65,.78,1.33,1.13,2.02,.55,1.09-.22-.83,.13,.35,.11,.37,.25,.73,.36,1.1,.22,.75,.37,1.51,.51,2.28-.17-.94,0-.08,.01,.17,.03,.33,.06,.66,.07,.99,.05,.94,.04,1.89-.02,2.83-.02,.41-.07,.82-.1,1.23-.11,1.3,.12-.54-.03,.24s-.26,1.51-.44,2.26c-.39,1.68-.91,3.33-1.53,4.95-.17,.43-.33,.87-.52,1.29,.32-.75-.29,.63-.29,.62-.38,.84-.79,1.66-1.21,2.48-.84,1.63-1.76,3.21-2.74,4.77-.89,1.42-1.84,2.82-2.81,4.19-.53,.75-1.08,1.5-1.63,2.23-.18,.25-.37,.49-.55,.74-.19,.25-.37,.49-.56,.74-.33,.43-.38,.49-.14,.19-9.09,11.8-19.66,22.3-30.32,32.65s-20.83,21.33-30,33.15c-4.28,5.51-8.67,11.1-12.33,17.04-2.32,3.76-4.11,7.85-5.76,11.94-3.91,9.67-6.7,19.87-8.35,30.17-1.52,9.52-2.68,20.14,.29,29.51,.6,1.9,1.39,3.79,2.45,5.48,1.25,1.99,4.07,2.96,6.16,1.61s2.95-4.02,1.61-6.16c-.22-.36-.44-.72-.63-1.09-.15-.29-.32-.97-.57-1.18,.49,.41,.36,.94,.11,.24-.08-.22-.16-.43-.24-.65-.16-.45-.3-.9-.43-1.35-.27-.96-.49-1.94-.67-2.92-.09-.52-.15-1.04-.25-1.56,.29,1.5-.02-.32-.06-.7-.46-4.89-.21-9.85,.33-14.72,.07-.66,.13-1.33,.24-1.99-.23,1.29,.12-.8,.17-1.14,.21-1.35,.43-2.7,.68-4.05,.5-2.72,1.09-5.43,1.75-8.12,1.28-5.21,2.83-10.36,4.68-15.39,.39-1.07,.8-2.13,1.22-3.19,.2-.5,.36-1.23,.68-1.67-.63,.85-.16,.38,0,0,.15-.35,.31-.7,.46-1.05,.86-1.93,1.79-3.83,2.81-5.68,3.01-5.4,6.92-10.38,10.65-15.29,1.15-1.51,1.62-2.13,2.8-3.62s2.48-3.11,3.74-4.65c2.37-2.88,4.8-5.72,7.28-8.52,5.06-5.69,10.35-11.16,15.82-16.46,10.88-10.56,21.71-21.19,31.11-33.13,8.91-11.33,18.88-25.74,15.47-40.98-.77-3.44-2.47-6.99-4.96-9.53-2.09-2.13-5.24-3.49-8.06-4.27-3.78-1.03-7.91-1.06-11.72-.2-3.06,.68-6.24,1.75-8.89,3.42-3.01,1.91-5.99,3.8-8.76,6.05-2.91,2.36-5.43,5.17-7.91,7.98-4.89,5.55-9.35,11.49-13.77,17.41-17.3,23.17-33.52,49.31-35.78,78.85-.26,3.41-.3,6.83-.15,10.25l7.68-3.18c-15.94-12.76-31.88-25.51-47.82-38.27-7.67-6.14-15.41-12.2-23-18.43-3.01-2.47-5.96-5.05-8.62-7.91-.64-.68-1.25-1.38-1.85-2.1-.12-.14-1.07-1.37-.53-.64-.31-.42-.63-.84-.93-1.27-1.07-1.54-2.03-3.17-2.81-4.88-.08-.18-.16-.35-.24-.53,.34,.8,.08,.17,.02,0-.15-.43-.31-.85-.45-1.28-.3-.93-.54-1.87-.72-2.83-.05-.26-.09-.52-.13-.78,.01,.07,.07,.74,.03,.21-.04-.49-.1-.98-.11-1.48s.05-1.04,.02-1.55-.02-.03-.04,.1c.05-.36,.14-.72,.23-1.07,.03-.11,.34-.94,.14-.48-.18,.42,.13-.22,.14-.24,.08-.16,.52-.73-.02-.08,.12-.15,.25-.29,.39-.42,.09-.09,.68-.64,.25-.27-.38,.33,.08-.05,.15-.1,.44-.26,.88-.51,1.34-.73-.85,.39,.33-.07,.56-.14,.44-.13,.88-.24,1.33-.33,.16-.03,1.45-.23,.93-.17-.6,.07,.22-.02,.36-.03,.32-.03,.64-.06,.95-.08,1.81-.12,3.62-.1,5.42,.08,.36,.04,1.38,.19,.45,.04,.42,.07,.85,.13,1.27,.21,.9,.17,1.8,.37,2.68,.61,.83,.22,1.65,.47,2.46,.75,.41,.14,.81,.29,1.21,.44,.17,.07,.34,.13,.52,.2,1.11,.43-.51-.24,.12,.04,1.66,.74,3.28,1.55,4.85,2.46,1.66,.97,3.27,2.03,4.82,3.15,.32,.23,.63,.46,.94,.7,.69,.51,.16,.12,.02,.01,.21,.16,.41,.32,.62,.49,.77,.62,1.54,1.26,2.29,1.91,2.97,2.57,5.74,5.35,8.38,8.25s5.21,6,7.66,9.14c.07,.09,.59,.76,.27,.35-.29-.38,.12,.16,.15,.19,.29,.38,.58,.75,.86,1.13,.61,.8,1.21,1.61,1.81,2.42,1.27,1.71,2.51,3.43,3.76,5.16,5.06,7.04,9.98,14.23,13.97,21.94,1.02,1.97,1.97,3.97,2.86,6.01-.27-.62,.15,.37,.23,.55,.22,.54,.43,1.09,.64,1.64,.39,1.02,.75,2.06,1.1,3.1,.66,2,1.22,4.04,1.68,6.1,.22,.99,.41,1.99,.58,3,.04,.22,.07,.43,.1,.65,.02,.11,.14,1.01,.07,.48-.06-.48,.03,.23,.03,.27,.04,.36,.08,.73,.12,1.09,.2,2.13,.27,4.27,.22,6.41h9c-1.47-23.15-2.72-46.32-3.74-69.5-1.01-23.01-1.8-46.02-2.36-69.05-.32-13.08-.56-26.17-.74-39.25-.07-5.1-7.37-6.08-8.84-1.2-5.47,18.2-10.99,36.4-17.39,54.31-1.6,4.47-3.25,8.92-4.97,13.35-.87,2.24-1.76,4.47-2.67,6.7-.41,1.01-.83,2.02-1.25,3.02-.11,.27-.22,.54-.34,.8-.29,.68,.23-.55-.05,.13-.25,.6-.51,1.2-.77,1.8-3.7,8.61-7.71,17.1-12.15,25.36s-9.19,16.14-14.48,23.77c-1.3,1.87-2.63,3.72-3.98,5.55-.68,.91-1.37,1.82-2.06,2.73,.45-.59-.5,.64-.61,.78-.4,.5-.79,1.01-1.2,1.51-2.9,3.62-5.93,7.14-9.09,10.54s-6.54,6.75-10.06,9.86c-.81,.72-1.64,1.42-2.47,2.12-.44,.37-.89,.74-1.34,1.1-.22,.18-.45,.36-.68,.54-.02,.01-1.1,.86-.45,.36-1.82,1.4-3.69,2.74-5.6,4s-3.85,2.43-5.85,3.53c-.99,.54-2,1.06-3.01,1.56-.51,.25-1.02,.49-1.53,.73-.26,.12-.51,.23-.77,.35-.09,.04-1.11,.48-.62,.28s-.33,.13-.44,.18c-.26,.11-.52,.21-.78,.31-.46,.18-.92,.35-1.38,.52-1.19,.43-2.39,.83-3.6,1.18-2.14,.63-4.32,1.14-6.52,1.52-.47,.08-.95,.15-1.42,.22,1.03-.15-.27,.02-.6,.05-.96,.1-1.92,.16-2.89,.2-2,.08-4,.03-5.99-.14-.48-.04-.97-.09-1.45-.14-.18-.02-.36-.04-.54-.07,1,.11,.33,.05,.12,.01-1.08-.17-2.15-.36-3.22-.59-1.89-.41-3.75-.94-5.58-1.58-.45-.16-.91-.33-1.36-.5-.27-.1-1.54-.66-.59-.23-.87-.4-1.75-.79-2.6-1.23-1.75-.9-3.44-1.92-5.05-3.05-.34-.24-.67-.49-1.01-.74,.83,.6-.27-.22-.49-.4-.78-.65-1.53-1.32-2.25-2.03-.68-.67-1.34-1.36-1.97-2.07-.31-.36-.62-.72-.92-1.1-.11-.14-.22-.28-.34-.42,.67,.84-.08-.12-.16-.24-1.14-1.58-2.13-3.25-2.99-5-1.05-2.11-4.21-2.87-6.16-1.61-2.16,1.39-2.74,3.9-1.61,6.16h0Z"/><circle class="e" cx="182.75" cy="182.75" r="177.25"/></g></g></g></svg>